<svg width="512" height="512" viewBox="0 0 512 512" fill="none" xmlns="http://www.w3.org/2000/svg">
<circle cx="256" cy="256" r="218" fill="#7559FF"/>
<path fill-rule="evenodd" clip-rule="evenodd" d="M410.976 191.184C429.365 172.016 461.117 176.74 467.411 202.546C484.464 272.455 466.527 349.321 413.02 405.095C329.767 491.876 191.927 494.735 105.147 411.482C49.3723 357.975 28.2637 281.919 42.4023 211.362C47.6212 185.318 79.1497 179.281 98.3174 197.67L131.342 229.352C146.886 244.263 171.574 243.751 186.485 228.208L226.891 186.09C241.802 170.547 266.49 170.035 282.033 184.947L324.151 225.353C339.694 240.264 364.382 239.752 379.294 224.209L410.976 191.184ZM256 263C209.608 263 172 300.608 172 347C172 393.392 209.608 431 256 431C302.392 430.999 340 393.391 340 347C340 300.608 302.392 263 256 263Z" fill="white"/>
</svg>
