<svg width="512" height="512" viewBox="0 0 512 512" fill="none" xmlns="http://www.w3.org/2000/svg">
<circle cx="256" cy="256" r="217" fill="#7559FF"/>
<path fill-rule="evenodd" clip-rule="evenodd" d="M406.282 195.52C424.101 176.996 454.869 181.562 460.968 206.501C477.492 274.062 460.112 348.346 408.262 402.247C327.588 486.113 194.019 488.876 109.927 408.42C55.8804 356.709 35.4257 283.208 49.1263 215.021C54.1835 189.852 84.7352 184.017 103.309 201.788L135.311 232.407C150.373 246.817 174.296 246.322 188.745 231.301L227.899 190.598C242.348 175.577 266.272 175.082 281.333 189.492L322.146 228.542C337.208 242.952 361.131 242.457 375.58 227.436L406.282 195.52ZM256.107 264.924C211.152 264.924 174.709 301.269 174.709 346.103C174.709 390.937 211.152 427.282 256.107 427.282C301.061 427.282 337.504 390.937 337.504 346.103C337.504 301.269 301.061 264.924 256.107 264.924Z" fill="white"/>
</svg>
